<?xml version="1.0" standalone="no"?>
<!DOCTYPE svg PUBLIC "-//W3C//DTD SVG 20010904//EN"
 "http://www.w3.org/TR/2001/REC-SVG-20010904/DTD/svg10.dtd">
<svg version="1.0" xmlns="http://www.w3.org/2000/svg"
 width="320.000000pt" height="320.000000pt" viewBox="0 0 320.000000 320.000000"
 preserveAspectRatio="xMidYMid meet">
<metadata>
Created by potrace 1.14, written by Peter Selinger 2001-2017
</metadata>
<g transform="translate(0.000000,320.000000) scale(0.100000,-0.100000)"
fill="#000000" stroke="none">
<path d="M1507 3183 c-3 -2 -116 -14 -159 -16 -16 -1 -28 -5 -28 -8 0 -6 -9
-7 -55 -10 -14 -1 -25 -4 -25 -8 0 -4 -8 -8 -17 -8 -39 -4 -69 -10 -85 -17 -9
-4 -22 -9 -30 -10 -17 -4 -67 -23 -93 -37 -12 -5 -28 -11 -37 -13 -9 -1 -22
-7 -30 -14 -8 -6 -18 -9 -21 -5 -4 3 -7 1 -7 -5 0 -7 -9 -12 -19 -12 -11 0
-22 -4 -26 -9 -3 -6 -26 -20 -50 -32 -25 -12 -45 -27 -45 -32 0 -6 -3 -7 -7
-4 -3 4 -21 -4 -39 -18 -18 -14 -35 -25 -38 -25 -6 0 -37 -25 -64 -50 -9 -8
-19 -15 -23 -15 -4 0 -21 -15 -38 -32 -17 -18 -33 -33 -36 -33 -10 0 -72 -69
-67 -75 3 -3 0 -5 -7 -5 -13 0 -58 -48 -77 -82 -5 -10 -13 -16 -16 -13 -3 4
-9 -3 -13 -14 -3 -12 -11 -21 -16 -21 -6 0 -7 -4 -4 -10 3 -5 2 -10 -4 -10 -6
0 -17 -13 -26 -29 -8 -16 -20 -35 -27 -43 -13 -13 -19 -24 -58 -94 -30 -52
-63 -119 -61 -122 1 -1 -6 -17 -16 -35 -9 -17 -18 -39 -19 -47 -2 -8 -7 -23
-13 -35 -11 -25 -23 -57 -26 -70 -1 -5 -3 -12 -4 -15 -2 -3 -4 -13 -7 -22 -2
-10 -5 -24 -7 -30 -11 -42 -30 -136 -31 -153 -1 -11 -4 -24 -7 -30 -3 -5 -5
-33 -5 -62 1 -28 -1 -50 -4 -48 -3 2 -5 -46 -5 -106 0 -60 2 -109 5 -109 3 0
5 -19 6 -43 0 -43 8 -102 18 -147 4 -14 8 -38 11 -55 9 -55 18 -90 25 -100 4
-5 11 -26 15 -45 4 -19 11 -39 15 -45 4 -5 15 -34 24 -62 10 -29 22 -55 27
-59 5 -3 7 -10 4 -15 -4 -5 1 -12 9 -15 9 -3 13 -10 10 -16 -3 -5 1 -17 9 -26
13 -16 27 -46 26 -58 0 -3 9 -14 21 -24 12 -10 22 -22 22 -27 1 -20 18 -53 28
-53 5 0 10 -5 10 -11 0 -7 10 -20 22 -30 11 -11 18 -19 14 -19 -3 0 5 -12 18
-27 55 -63 76 -88 76 -95 0 -4 9 -9 20 -13 11 -3 19 -10 17 -15 -1 -4 9 -18
23 -30 14 -12 44 -39 67 -61 24 -22 43 -37 43 -34 0 3 10 -4 22 -15 42 -38 83
-70 91 -70 4 0 17 -9 29 -20 12 -10 25 -17 30 -14 4 3 8 0 8 -6 0 -6 8 -13 18
-17 9 -3 29 -14 43 -24 14 -10 29 -16 33 -12 3 3 6 1 6 -5 0 -7 5 -12 12 -12
6 0 36 -12 67 -27 31 -15 58 -27 61 -28 12 -2 86 -28 95 -34 6 -3 17 -6 25 -8
20 -3 101 -23 120 -30 8 -4 24 -7 35 -8 11 -1 38 -5 60 -9 22 -4 60 -10 85
-13 62 -7 301 -9 306 -2 2 3 13 5 26 4 13 -1 29 2 36 8 8 6 12 6 12 -2 0 -8 6
-9 18 -2 9 5 35 12 57 15 22 3 53 8 69 11 15 2 34 9 41 15 7 6 20 8 29 4 9 -3
16 -2 16 3 0 5 6 10 13 11 6 0 19 3 27 5 8 3 30 8 48 12 17 4 32 12 32 18 0 6
3 8 6 4 4 -3 23 2 44 13 21 11 40 16 44 13 3 -4 6 -2 6 3 0 6 15 15 33 22 17
6 48 22 67 34 19 12 37 22 40 23 6 0 123 77 130 85 3 3 23 18 45 35 22 16 46
35 53 42 7 7 18 13 23 13 6 0 7 4 4 10 -3 5 -2 10 3 10 12 0 102 90 102 102 0
5 5 6 10 3 6 -3 10 -2 10 2 0 5 16 26 35 48 19 22 54 68 77 103 23 34 46 62
50 62 5 0 7 4 3 10 -3 5 3 18 14 29 11 11 17 22 13 25 -3 3 0 6 7 6 7 0 10 4
7 9 -3 5 3 20 14 34 11 14 20 27 20 30 0 2 10 26 22 53 12 27 22 51 23 54 0 3
3 10 6 15 8 12 50 139 54 163 2 9 4 18 5 20 2 1 4 7 5 12 1 6 4 12 5 15 1 3 4
14 5 25 1 11 3 21 4 23 6 6 14 55 14 85 1 17 4 32 7 32 19 0 15 372 -5 470 -3
14 -8 40 -11 59 -3 19 -10 45 -15 58 -5 13 -6 23 -3 23 4 0 1 7 -6 15 -7 8
-10 15 -6 15 3 0 0 16 -8 35 -8 19 -12 35 -9 35 3 0 0 7 -7 15 -7 8 -10 15 -6
15 4 0 0 13 -8 29 -9 16 -12 31 -9 35 4 3 2 6 -4 6 -6 0 -13 12 -16 28 -8 36
-135 262 -160 285 -11 9 -17 17 -13 17 9 0 -15 31 -83 109 -73 83 -131 141
-142 141 -6 0 -7 5 -4 10 3 6 1 10 -6 10 -6 0 -22 11 -35 26 -13 14 -24 22
-24 18 0 -4 -8 2 -17 13 -16 18 -108 81 -158 109 -41 22 -70 39 -85 50 -21 15
-153 69 -162 66 -5 -1 -8 2 -8 7 0 5 -15 12 -32 16 -18 4 -40 9 -48 12 -8 2
-21 5 -27 5 -7 1 -13 5 -13 10 0 4 -3 7 -7 7 -5 -1 -11 0 -15 1 -5 1 -17 4
-28 5 -11 1 -22 4 -25 5 -3 1 -9 4 -15 5 -5 1 -11 3 -12 5 -2 1 -12 3 -23 4
-11 2 -38 6 -60 9 -90 15 -349 30 -358 20z"/>
</g>
</svg>
